<svg width="61" height="50" viewBox="0 0 61 50" fill="none" xmlns="http://www.w3.org/2000/svg">
<g id="Logomark">
<path id="Union" fill-rule="evenodd" clip-rule="evenodd" d="M15.2109 48.6871V48.704H27.1235V48.098H25.3736C22.6815 48.098 21.7392 47.1555 21.7392 44.5297V42.8378C24.5434 43.6979 27.5317 44.1623 30.6305 44.1623C34.8865 44.1623 38.8007 43.5178 42.2907 42.3065L44.2185 45.8089C45.0934 47.4248 46.1029 49.3099 46.1029 49.9832H46.6414V40.3864C55.0455 35.7932 60.0675 27.2872 60.0675 16.4144C60.0675 8.46658 55.6434 0.591045 47.8146 0.239783C45.4511 -0.122347 42.4168 -0.0502929 38.1612 0.295259V0.90121H41.1898C44.2858 0.90121 45.4972 2.11311 45.4972 5.14287V33.6827C45.0117 33.9104 44.5161 34.128 44.0108 34.3351C43.9905 34.2998 43.97 34.2643 43.9492 34.2285L27.2482 3.49692L27.2596 3.49919L25.5709 0.241315L0 0.241316L0.0795587 0.954834L5.91026 0.954834C6.2421 0.954834 6.73369 1.00043 7.25087 1.0484L7.25087 1.0484C7.5735 1.07832 7.90608 1.10917 8.21605 1.13045C7.67347 1.29403 7.06703 1.60281 6.68301 1.98547C3.26195 6.02874 1.59119 11.1819 1.59119 16.4937C1.59119 25.1787 5.79495 32.9186 12.3547 37.9882V44.5801C12.3547 47.8119 12.0182 48.0812 8.78762 48.0812H6.43202V48.6871H15.2109ZM18.7801 47.8663C20.0666 47.4482 20.5951 46.4295 20.5951 44.5297V42.4614C19.57 42.101 18.5718 41.687 17.6043 41.223V44.5801C17.6043 46.6798 17.7748 47.529 18.7801 47.8663ZM21.7392 36.4331C24.1082 36.8757 26.6564 37.1064 29.3575 37.1064C32.6732 37.1064 35.856 36.7193 38.822 36.0045L23.3545 7.90331C22.6142 6.69141 22.0085 5.34485 22.0085 5.27752H21.6719C21.7392 6.01813 21.7392 7.02805 21.7392 8.17262V36.4331ZM20.5951 36.1998C19.5605 35.9708 18.5628 35.7 17.6043 35.389V4.52008C17.6043 3.03036 17.6901 2.17013 18.0991 1.67558L20.3778 2.12922C20.5514 2.65682 20.5951 3.40659 20.5951 4.46959V36.1998ZM46.6414 33.1179C53.9239 29.3367 58.6355 23.2114 58.6355 16.2558C58.1027 7.47796 53.4973 1.47803 48.4243 1.85702C47.1535 2.23294 46.6414 3.13054 46.6414 5.14287V33.1179ZM12.3547 4.38542V33.061C6.41449 29.5788 2.94371 24.0295 2.94371 17.1279C2.94371 10.6304 6.76047 4.24147 12.1371 2.00944C12.3157 2.52921 12.3547 3.28584 12.3547 4.38542Z" fill="#262626"/>
</g>
</svg>
